<?xml version="1.0" standalone="no"?>
<!DOCTYPE svg PUBLIC "-//W3C//DTD SVG 20010904//EN"
 "http://www.w3.org/TR/2001/REC-SVG-20010904/DTD/svg10.dtd">
<svg version="1.0" xmlns="http://www.w3.org/2000/svg"
width="1200" height="1200" class="icon" viewBox="0 0 2900 1800"
 preserveAspectRatio="xMidYMid meet">
<metadata>
Created by potrace 1.16, written by Peter Selinger 2001-2019
</metadata>
<g transform="translate(0.000000,685.000000) scale(0.100000,-0.100000)"
fill="#702F89" stroke="none">
<path d="M1050 6700 l0 -150 -25 0 -25 0 0 -200 0 -200 -25 0 -25 0 0 -225 0
-225 -25 0 -25 0 0 -200 0 -200 -25 0 -25 0 0 -200 0 -200 -25 0 -25 0 0 -200
0 -200 -25 0 -25 0 0 -225 0 -225 -25 0 -25 0 0 -200 0 -200 -25 0 -25 0 0
-200 0 -200 -25 0 -25 0 0 -175 0 -175 -25 0 c-24 0 -25 -2 -25 -75 0 -73 -1
-75 -25 -75 -20 0 -25 -5 -25 -25 0 -20 -5 -25 -25 -25 -20 0 -25 -5 -25 -25
0 -23 -3 -25 -50 -25 -47 0 -50 -2 -50 -25 l0 -25 -125 0 -125 0 0 -50 0 -50
675 0 675 0 0 50 0 50 -100 0 -100 0 0 25 c0 24 -2 25 -75 25 -73 0 -75 1 -75
25 0 20 -5 25 -25 25 -23 0 -25 3 -25 50 0 47 -2 50 -25 50 -23 0 -25 3 -25
50 0 47 2 50 25 50 l25 0 0 300 0 300 25 0 25 0 0 250 0 250 25 0 25 0 0 250
0 250 25 0 25 0 0 275 0 275 25 0 25 0 0 250 0 250 50 0 50 0 0 -50 c0 -47 2
-50 25 -50 23 0 25 -3 25 -50 0 -47 2 -50 25 -50 23 0 25 -3 25 -50 0 -47 2
-50 25 -50 23 0 25 -3 25 -50 0 -47 2 -50 25 -50 23 0 25 -3 25 -50 0 -47 2
-50 25 -50 23 0 25 -3 25 -50 0 -47 2 -50 25 -50 23 0 25 -3 25 -50 0 -47 2
-50 25 -50 23 0 25 -3 25 -50 0 -47 2 -50 25 -50 23 0 25 -3 25 -50 0 -47 2
-50 25 -50 23 0 25 -3 25 -50 0 -47 2 -50 25 -50 23 0 25 -3 25 -50 0 -47 2
-50 25 -50 23 0 25 -3 25 -50 0 -47 2 -50 25 -50 23 0 25 -3 25 -50 0 -47 2
-50 25 -50 23 0 25 -3 25 -50 0 -47 2 -50 25 -50 23 0 25 -3 25 -50 0 -47 2
-50 25 -50 23 0 25 -3 25 -50 0 -47 2 -50 25 -50 20 0 25 -5 25 -25 0 -20 5
-25 25 -25 23 0 25 -3 25 -50 0 -47 2 -50 25 -50 23 0 25 -3 25 -50 0 -47 2
-50 25 -50 23 0 25 -3 25 -50 0 -47 2 -50 25 -50 23 0 25 -3 25 -50 0 -47 2
-50 25 -50 23 0 25 -3 25 -50 0 -47 2 -50 25 -50 20 0 25 -5 25 -25 0 -20 5
-25 25 -25 23 0 25 -3 25 -50 0 -47 2 -50 25 -50 23 0 25 -3 25 -50 0 -47 2
-50 25 -50 23 0 25 -3 25 -50 0 -47 2 -50 25 -50 23 0 25 -3 25 -50 0 -47 2
-50 25 -50 20 0 25 -5 25 -25 0 -20 5 -25 25 -25 23 0 25 -3 25 -50 0 -47 2
-50 25 -50 23 0 25 -3 25 -50 0 -47 2 -50 25 -50 23 0 25 -3 25 -50 0 -47 2
-50 25 -50 20 0 25 -5 25 -25 0 -20 5 -25 25 -25 20 0 25 -5 25 -25 0 -24 2
-25 75 -25 73 0 75 1 75 25 0 20 5 25 25 25 23 0 25 3 25 50 0 47 2 50 25 50
23 0 25 3 25 50 0 47 2 50 25 50 23 0 25 3 25 50 0 47 2 50 25 50 23 0 25 3
25 50 0 47 2 50 25 50 23 0 25 3 25 50 0 47 2 50 25 50 23 0 25 3 25 50 0 47
2 50 25 50 23 0 25 3 25 50 0 47 2 50 25 50 23 0 25 3 25 50 0 47 2 50 25 50
23 0 25 3 25 50 0 47 2 50 25 50 20 0 25 5 25 25 0 20 5 25 25 25 23 0 25 3
25 50 0 47 2 50 25 50 23 0 25 3 25 50 0 47 2 50 25 50 23 0 25 3 25 50 0 47
2 50 25 50 23 0 25 3 25 50 0 47 2 50 25 50 23 0 25 3 25 50 0 47 2 50 25 50
23 0 25 3 25 50 0 47 2 50 25 50 23 0 25 3 25 50 0 47 2 50 25 50 23 0 25 3
25 50 0 47 2 50 25 50 23 0 25 3 25 50 0 47 2 50 25 50 23 0 25 3 25 50 0 47
2 50 25 50 23 0 25 3 25 50 0 47 2 50 25 50 23 0 25 3 25 50 0 47 2 50 25 50
23 0 25 3 25 50 0 47 2 50 25 50 23 0 25 3 25 50 0 47 2 50 25 50 20 0 25 5
25 25 0 20 5 25 25 25 23 0 25 3 25 50 0 47 2 50 25 50 23 0 25 3 25 50 0 47
2 50 25 50 23 0 25 3 25 50 0 47 2 50 25 50 23 0 25 3 25 50 0 47 2 50 25 50
23 0 25 3 25 50 0 47 2 50 25 50 23 0 25 3 25 50 0 47 2 50 25 50 23 0 25 3
25 50 0 47 2 50 25 50 l25 0 0 -200 0 -200 25 0 25 0 0 -250 0 -250 25 0 25 0
0 -250 0 -250 25 0 25 0 0 -250 0 -250 25 0 25 0 0 -250 0 -250 25 0 25 0 0
-250 0 -250 25 0 c20 0 25 -5 25 -25 0 -20 -5 -25 -25 -25 -20 0 -25 -5 -25
-25 0 -20 -5 -25 -25 -25 -23 0 -25 -3 -25 -50 l0 -50 50 0 c47 0 50 -2 50
-25 l0 -25 650 0 650 0 0 50 0 50 -150 0 -150 0 0 25 0 25 -100 0 -100 0 0 25
c0 20 -5 25 -25 25 -20 0 -25 5 -25 25 0 23 -3 25 -50 25 l-50 0 0 50 c0 47
-2 50 -25 50 -23 0 -25 3 -25 50 0 47 -2 50 -25 50 l-25 0 0 125 0 125 -25 0
-25 0 0 200 0 200 -25 0 -25 0 0 200 0 200 -25 0 -25 0 0 225 0 225 -25 0 -25
0 0 200 0 200 -25 0 -25 0 0 200 0 200 -25 0 -25 0 0 225 0 225 -25 0 -25 0 0
200 0 200 -25 0 -25 0 0 200 0 200 -25 0 -25 0 0 175 0 175 -100 0 -100 0 0
-25 c0 -20 -5 -25 -25 -25 -23 0 -25 -3 -25 -50 0 -47 -2 -50 -25 -50 -23 0
-25 -3 -25 -50 0 -47 -2 -50 -25 -50 -23 0 -25 -3 -25 -50 0 -47 -2 -50 -25
-50 -23 0 -25 -3 -25 -50 0 -47 -2 -50 -25 -50 -23 0 -25 -3 -25 -50 0 -47 -2
-50 -25 -50 -23 0 -25 -3 -25 -50 0 -47 -2 -50 -25 -50 -23 0 -25 -3 -25 -50
0 -47 -2 -50 -25 -50 -23 0 -25 -3 -25 -50 0 -47 -2 -50 -25 -50 -23 0 -25 -3
-25 -50 0 -47 -2 -50 -25 -50 -23 0 -25 -3 -25 -50 0 -47 -2 -50 -25 -50 -23
0 -25 -3 -25 -50 0 -47 -2 -50 -25 -50 -23 0 -25 -3 -25 -50 0 -47 -2 -50 -25
-50 -23 0 -25 -3 -25 -50 0 -47 -2 -50 -25 -50 -23 0 -25 -3 -25 -50 0 -47 -2
-50 -25 -50 -23 0 -25 -3 -25 -50 0 -47 -2 -50 -25 -50 -23 0 -25 -3 -25 -50
0 -47 -2 -50 -25 -50 -20 0 -25 -5 -25 -25 0 -20 -5 -25 -25 -25 -23 0 -25 -3
-25 -50 0 -47 -2 -50 -25 -50 -23 0 -25 -3 -25 -50 0 -47 -2 -50 -25 -50 -23
0 -25 -3 -25 -50 0 -47 -2 -50 -25 -50 -23 0 -25 -3 -25 -50 0 -47 -2 -50 -25
-50 -23 0 -25 -3 -25 -50 0 -47 -2 -50 -25 -50 -23 0 -25 -3 -25 -50 0 -47 -2
-50 -25 -50 -23 0 -25 -3 -25 -50 0 -47 -2 -50 -25 -50 -23 0 -25 -3 -25 -50
0 -47 -2 -50 -25 -50 -23 0 -25 -3 -25 -50 0 -47 -2 -50 -25 -50 -23 0 -25 -3
-25 -50 0 -47 -2 -50 -25 -50 -23 0 -25 -3 -25 -50 0 -47 -2 -50 -25 -50 -23
0 -25 -3 -25 -50 0 -47 -2 -50 -25 -50 -23 0 -25 -3 -25 -50 0 -47 -2 -50 -25
-50 -23 0 -25 -3 -25 -50 0 -47 -2 -50 -25 -50 -23 0 -25 -3 -25 -50 0 -47 -2
-50 -25 -50 -23 0 -25 -3 -25 -50 0 -47 -2 -50 -25 -50 -23 0 -25 -3 -25 -50
0 -47 -2 -50 -25 -50 -23 0 -25 -3 -25 -50 0 -47 -2 -50 -25 -50 -20 0 -25 -5
-25 -25 0 -20 -5 -25 -25 -25 -23 0 -25 3 -25 50 0 47 -2 50 -25 50 -23 0 -25
3 -25 50 0 47 -2 50 -25 50 -23 0 -25 3 -25 50 0 47 -2 50 -25 50 -23 0 -25 3
-25 50 0 47 -2 50 -25 50 -20 0 -25 5 -25 25 0 20 -5 25 -25 25 -23 0 -25 3
-25 50 0 47 -2 50 -25 50 -23 0 -25 3 -25 50 0 47 -2 50 -25 50 -23 0 -25 3
-25 50 0 47 -2 50 -25 50 -23 0 -25 3 -25 50 0 47 -2 50 -25 50 -23 0 -25 3
-25 50 0 47 -2 50 -25 50 -23 0 -25 3 -25 50 0 47 -2 50 -25 50 -23 0 -25 3
-25 50 0 47 -2 50 -25 50 -20 0 -25 5 -25 25 0 20 -5 25 -25 25 -23 0 -25 3
-25 50 0 47 -2 50 -25 50 -23 0 -25 3 -25 50 0 47 -2 50 -25 50 -23 0 -25 3
-25 50 0 47 -2 50 -25 50 -23 0 -25 3 -25 50 0 47 -2 50 -25 50 -23 0 -25 3
-25 50 0 47 -2 50 -25 50 -23 0 -25 3 -25 50 0 47 -2 50 -25 50 -23 0 -25 3
-25 50 0 47 -2 50 -25 50 -20 0 -25 5 -25 25 0 20 -5 25 -25 25 -23 0 -25 3
-25 50 0 47 -2 50 -25 50 -23 0 -25 3 -25 50 0 47 -2 50 -25 50 -23 0 -25 3
-25 50 0 47 -2 50 -25 50 -23 0 -25 3 -25 50 0 47 -2 50 -25 50 -23 0 -25 3
-25 50 0 47 -2 50 -25 50 -23 0 -25 3 -25 50 0 47 -2 50 -25 50 -20 0 -25 5
-25 25 0 20 -5 25 -25 25 -23 0 -25 3 -25 50 0 47 -2 50 -25 50 -23 0 -25 3
-25 50 0 47 -2 50 -25 50 -23 0 -25 3 -25 50 0 47 -2 50 -25 50 -23 0 -25 3
-25 50 0 47 -2 50 -25 50 -23 0 -25 3 -25 50 0 47 -2 50 -25 50 -23 0 -25 3
-25 50 0 47 -2 50 -25 50 -23 0 -25 3 -25 50 0 47 -2 50 -25 50 -20 0 -25 5
-25 25 0 20 -5 25 -25 25 -23 0 -25 3 -25 50 0 47 -2 50 -25 50 -23 0 -25 3
-25 50 l0 50 -100 0 -100 0 0 -150z"/>
<path d="M11800 6825 l0 -25 -125 0 -125 0 0 -25 0 -25 -100 0 -100 0 0 -25
c0 -23 -3 -25 -50 -25 -47 0 -50 -2 -50 -25 0 -24 -2 -25 -75 -25 -73 0 -75
-1 -75 -25 0 -23 -3 -25 -50 -25 -47 0 -50 -2 -50 -25 0 -23 -3 -25 -50 -25
-47 0 -50 -2 -50 -25 0 -20 -5 -25 -25 -25 -20 0 -25 -5 -25 -25 0 -23 -3 -25
-50 -25 -47 0 -50 -2 -50 -25 0 -20 -5 -25 -25 -25 -20 0 -25 -5 -25 -25 0
-20 -5 -25 -25 -25 -20 0 -25 -5 -25 -25 0 -23 -3 -25 -50 -25 -47 0 -50 -2
-50 -25 0 -20 -5 -25 -25 -25 -20 0 -25 -5 -25 -25 0 -20 -5 -25 -25 -25 -20
0 -25 -5 -25 -25 0 -20 -5 -25 -25 -25 -20 0 -25 -5 -25 -25 0 -20 -5 -25 -25
-25 -23 0 -25 -3 -25 -50 0 -47 -2 -50 -25 -50 -20 0 -25 -5 -25 -25 0 -20 -5
-25 -25 -25 -20 0 -25 -5 -25 -25 0 -20 -5 -25 -25 -25 -23 0 -25 -3 -25 -50
0 -47 -2 -50 -25 -50 -23 0 -25 -3 -25 -50 0 -47 -2 -50 -25 -50 -23 0 -25 -3
-25 -50 0 -47 -2 -50 -25 -50 -23 0 -25 -3 -25 -50 0 -47 -2 -50 -25 -50 -24
0 -25 -2 -25 -75 0 -73 -1 -75 -25 -75 -24 0 -25 -2 -25 -75 0 -73 -1 -75 -25
-75 l-25 0 0 -125 0 -125 -25 0 -25 0 0 -275 0 -275 25 0 25 0 0 -150 0 -150
25 0 c24 0 25 -2 25 -75 0 -73 1 -75 25 -75 24 0 25 -2 25 -75 0 -73 1 -75 25
-75 23 0 25 -3 25 -50 0 -47 2 -50 25 -50 23 0 25 -3 25 -50 0 -47 2 -50 25
-50 23 0 25 -3 25 -50 0 -47 2 -50 25 -50 20 0 25 -5 25 -25 0 -20 5 -25 25
-25 23 0 25 -3 25 -50 0 -47 2 -50 25 -50 20 0 25 -5 25 -25 0 -20 5 -25 25
-25 20 0 25 -5 25 -25 0 -20 5 -25 25 -25 20 0 25 -5 25 -25 0 -20 5 -25 25
-25 20 0 25 -5 25 -25 0 -20 5 -25 25 -25 20 0 25 -5 25 -25 0 -20 5 -25 25
-25 20 0 25 -5 25 -25 0 -20 5 -25 25 -25 20 0 25 -5 25 -25 0 -20 5 -25 25
-25 20 0 25 -5 25 -25 0 -23 3 -25 50 -25 47 0 50 -2 50 -25 0 -20 5 -25 25
-25 20 0 25 -5 25 -25 0 -23 3 -25 50 -25 47 0 50 -2 50 -25 0 -20 5 -25 25
-25 20 0 25 -5 25 -25 0 -23 3 -25 50 -25 47 0 50 -2 50 -25 0 -23 3 -25 50
-25 47 0 50 -2 50 -25 0 -24 2 -25 75 -25 73 0 75 -1 75 -25 0 -24 2 -25 75
-25 73 0 75 -1 75 -25 0 -24 2 -25 75 -25 73 0 75 -1 75 -25 l0 -25 100 0 100
0 0 -25 0 -25 200 0 200 0 0 -25 0 -25 500 0 500 0 0 25 0 25 200 0 200 0 0
25 0 25 100 0 100 0 0 25 c0 23 3 25 50 25 47 0 50 2 50 25 0 20 5 25 25 25
20 0 25 5 25 25 0 20 5 25 25 25 24 0 25 2 25 75 0 73 1 75 25 75 l25 0 0 125
0 125 25 0 25 0 0 150 0 150 25 0 c24 0 25 2 25 75 0 73 -1 75 -25 75 -20 0
-25 5 -25 25 0 23 -3 25 -50 25 -47 0 -50 -2 -50 -25 0 -20 -5 -25 -25 -25
l-25 0 0 -100 0 -100 -25 0 c-23 0 -25 -3 -25 -50 0 -47 -2 -50 -25 -50 -23 0
-25 -3 -25 -50 0 -47 -2 -50 -25 -50 -20 0 -25 -5 -25 -25 0 -20 -5 -25 -25
-25 -20 0 -25 -5 -25 -25 0 -20 -5 -25 -25 -25 -20 0 -25 -5 -25 -25 0 -20 -5
-25 -25 -25 -20 0 -25 -5 -25 -25 0 -20 -5 -25 -25 -25 -20 0 -25 -5 -25 -25
0 -24 -2 -25 -75 -25 -73 0 -75 -1 -75 -25 0 -24 -2 -25 -75 -25 -73 0 -75 -1
-75 -25 l0 -25 -150 0 -150 0 0 -25 0 -25 -275 0 -275 0 0 25 0 25 -150 0
-150 0 0 25 0 25 -100 0 -100 0 0 25 c0 23 -3 25 -50 25 -47 0 -50 2 -50 25 0
24 -2 25 -75 25 -73 0 -75 1 -75 25 0 23 -3 25 -50 25 -47 0 -50 2 -50 25 0
23 -3 25 -50 25 -47 0 -50 2 -50 25 0 20 -5 25 -25 25 -20 0 -25 5 -25 25 0
23 -3 25 -50 25 -47 0 -50 2 -50 25 0 20 -5 25 -25 25 -20 0 -25 5 -25 25 0
20 -5 25 -25 25 -20 0 -25 5 -25 25 0 23 -3 25 -50 25 -47 0 -50 2 -50 25 0
20 -5 25 -25 25 -20 0 -25 5 -25 25 0 20 -5 25 -25 25 -20 0 -25 5 -25 25 0
20 -5 25 -25 25 -20 0 -25 5 -25 25 0 20 -5 25 -25 25 -23 0 -25 3 -25 50 0
47 -2 50 -25 50 -20 0 -25 5 -25 25 0 20 -5 25 -25 25 -20 0 -25 5 -25 25 0
20 -5 25 -25 25 -23 0 -25 3 -25 50 0 47 -2 50 -25 50 -23 0 -25 3 -25 50 0
47 -2 50 -25 50 -23 0 -25 3 -25 50 0 47 -2 50 -25 50 -23 0 -25 3 -25 50 0
47 -2 50 -25 50 -24 0 -25 2 -25 75 0 73 -1 75 -25 75 l-25 0 0 100 0 100 -25
0 -25 0 0 425 0 425 25 0 25 0 0 125 0 125 25 0 c23 0 25 3 25 50 0 47 2 50
25 50 24 0 25 2 25 75 0 73 1 75 25 75 23 0 25 3 25 50 0 47 2 50 25 50 20 0
25 5 25 25 0 20 5 25 25 25 20 0 25 5 25 25 0 20 5 25 25 25 23 0 25 3 25 50
0 47 2 50 25 50 20 0 25 5 25 25 0 20 5 25 25 25 20 0 25 5 25 25 0 20 5 25
25 25 20 0 25 5 25 25 0 20 5 25 25 25 20 0 25 5 25 25 0 23 3 25 50 25 47 0
50 2 50 25 0 20 5 25 25 25 20 0 25 5 25 25 0 23 3 25 50 25 47 0 50 2 50 25
0 23 3 25 50 25 47 0 50 2 50 25 0 23 3 25 50 25 47 0 50 2 50 25 l0 25 100 0
100 0 0 25 0 25 125 0 125 0 0 25 0 25 450 0 450 0 0 -25 0 -25 125 0 125 0 0
-25 0 -25 100 0 100 0 0 -25 c0 -23 3 -25 50 -25 47 0 50 -2 50 -25 0 -23 3
-25 50 -25 47 0 50 -2 50 -25 0 -23 3 -25 50 -25 47 0 50 -2 50 -25 0 -20 5
-25 25 -25 20 0 25 -5 25 -25 0 -20 5 -25 25 -25 20 0 25 -5 25 -25 0 -20 5
-25 25 -25 20 0 25 -5 25 -25 0 -20 5 -25 25 -25 23 0 25 -3 25 -50 0 -47 2
-50 25 -50 23 0 25 -3 25 -50 0 -47 2 -50 25 -50 l25 0 0 -175 0 -175 75 0 75
0 0 50 c0 47 2 50 25 50 l25 0 0 450 0 450 25 0 c20 0 25 5 25 25 0 20 -5 25
-25 25 -20 0 -25 5 -25 25 0 20 -5 25 -25 25 -20 0 -25 5 -25 25 l0 25 -225 0
-225 0 0 25 0 25 -175 0 -175 0 0 25 0 25 -725 0 -725 0 0 -25z"/>
<path d="M16350 5650 c0 -47 -2 -50 -25 -50 -24 0 -25 -2 -25 -75 0 -73 -1
-75 -25 -75 -23 0 -25 -3 -25 -50 0 -47 -2 -50 -25 -50 -23 0 -25 -3 -25 -50
0 -47 -2 -50 -25 -50 -24 0 -25 -2 -25 -75 0 -73 -1 -75 -25 -75 -23 0 -25 -3
-25 -50 0 -47 -2 -50 -25 -50 -24 0 -25 -2 -25 -75 0 -73 -1 -75 -25 -75 -23
0 -25 -3 -25 -50 0 -47 -2 -50 -25 -50 -23 0 -25 -3 -25 -50 0 -47 -2 -50 -25
-50 -24 0 -25 -2 -25 -75 0 -73 -1 -75 -25 -75 -23 0 -25 -3 -25 -50 0 -47 -2
-50 -25 -50 -24 0 -25 -2 -25 -75 0 -73 -1 -75 -25 -75 -23 0 -25 -3 -25 -50
0 -47 -2 -50 -25 -50 -23 0 -25 -3 -25 -50 0 -47 -2 -50 -25 -50 -24 0 -25 -2
-25 -75 0 -73 -1 -75 -25 -75 -23 0 -25 -3 -25 -50 0 -47 -2 -50 -25 -50 -24
0 -25 -2 -25 -75 0 -73 -1 -75 -25 -75 -23 0 -25 -3 -25 -50 0 -47 -2 -50 -25
-50 -23 0 -25 -3 -25 -50 0 -47 -2 -50 -25 -50 -24 0 -25 -2 -25 -75 0 -73 -1
-75 -25 -75 -23 0 -25 -3 -25 -50 0 -47 -2 -50 -25 -50 -24 0 -25 -2 -25 -75
0 -73 -1 -75 -25 -75 -23 0 -25 -3 -25 -50 0 -47 -2 -50 -25 -50 -23 0 -25 -3
-25 -50 0 -47 -2 -50 -25 -50 -23 0 -25 -3 -25 -50 0 -47 -2 -50 -25 -50 -20
0 -25 -5 -25 -25 0 -20 -5 -25 -25 -25 -20 0 -25 -5 -25 -25 0 -23 -3 -25 -50
-25 -47 0 -50 -2 -50 -25 l0 -25 -150 0 -150 0 0 -50 0 -50 575 0 575 0 0 50
0 50 -100 0 -100 0 0 25 c0 20 -5 25 -25 25 l-25 0 0 100 0 100 25 0 c24 0 25
2 25 75 0 73 1 75 25 75 24 0 25 2 25 75 0 73 1 75 25 75 23 0 25 3 25 50 0
47 2 50 25 50 24 0 25 2 25 75 0 73 1 75 25 75 24 0 25 2 25 75 0 73 1 75 25
75 23 0 25 3 25 50 l0 50 500 0 500 0 0 -25 c0 -20 5 -25 25 -25 23 0 25 -3
25 -50 0 -47 2 -50 25 -50 23 0 25 -3 25 -50 0 -47 2 -50 25 -50 23 0 25 -3
25 -50 0 -47 2 -50 25 -50 24 0 25 -2 25 -75 0 -73 1 -75 25 -75 23 0 25 -3
25 -50 0 -47 2 -50 25 -50 23 0 25 -3 25 -50 0 -47 2 -50 25 -50 24 0 25 -2
25 -75 0 -73 1 -75 25 -75 23 0 25 -3 25 -50 0 -47 2 -50 25 -50 23 0 25 -3
25 -50 0 -47 -2 -50 -25 -50 -23 0 -25 -3 -25 -50 l0 -50 525 0 525 0 0 50 0
50 -125 0 -125 0 0 25 c0 23 -3 25 -50 25 -47 0 -50 2 -50 25 0 20 -5 25 -25
25 -20 0 -25 5 -25 25 0 20 -5 25 -25 25 -20 0 -25 5 -25 25 0 20 -5 25 -25
25 -23 0 -25 3 -25 50 0 47 -2 50 -25 50 -20 0 -25 5 -25 25 0 20 -5 25 -25
25 -23 0 -25 3 -25 50 0 47 -2 50 -25 50 -23 0 -25 3 -25 50 0 47 -2 50 -25
50 -24 0 -25 2 -25 75 0 73 -1 75 -25 75 -23 0 -25 3 -25 50 0 47 -2 50 -25
50 -23 0 -25 3 -25 50 0 47 -2 50 -25 50 -23 0 -25 3 -25 50 0 47 -2 50 -25
50 -24 0 -25 2 -25 75 0 73 -1 75 -25 75 -23 0 -25 3 -25 50 0 47 -2 50 -25
50 -23 0 -25 3 -25 50 0 47 -2 50 -25 50 -23 0 -25 3 -25 50 0 47 -2 50 -25
50 -24 0 -25 2 -25 75 0 73 -1 75 -25 75 -23 0 -25 3 -25 50 0 47 -2 50 -25
50 -23 0 -25 3 -25 50 0 47 -2 50 -25 50 -24 0 -25 2 -25 75 0 73 -1 75 -25
75 -23 0 -25 3 -25 50 0 47 -2 50 -25 50 -23 0 -25 3 -25 50 0 47 -2 50 -25
50 -23 0 -25 3 -25 50 0 47 -2 50 -25 50 -24 0 -25 2 -25 75 0 73 -1 75 -25
75 -23 0 -25 3 -25 50 0 47 -2 50 -25 50 -23 0 -25 3 -25 50 0 47 -2 50 -25
50 -24 0 -25 2 -25 75 0 73 -1 75 -25 75 -23 0 -25 3 -25 50 0 47 -2 50 -25
50 -23 0 -25 3 -25 50 0 47 -2 50 -25 50 -23 0 -25 3 -25 50 0 47 -2 50 -25
50 -20 0 -25 5 -25 25 0 24 -2 25 -75 25 l-75 0 0 -50z m50 -825 c0 -73 1 -75
25 -75 23 0 25 -3 25 -50 0 -47 2 -50 25 -50 24 0 25 -2 25 -75 0 -73 1 -75
25 -75 23 0 25 -3 25 -50 0 -47 2 -50 25 -50 24 0 25 -2 25 -75 0 -73 1 -75
25 -75 24 0 25 -2 25 -75 0 -73 1 -75 25 -75 23 0 25 -3 25 -50 0 -47 2 -50
25 -50 23 0 25 -3 25 -50 l0 -50 -375 0 -375 0 0 75 c0 73 1 75 25 75 23 0 25
3 25 50 0 47 2 50 25 50 24 0 25 2 25 75 0 73 1 75 25 75 24 0 25 2 25 75 0
73 1 75 25 75 23 0 25 3 25 50 0 47 2 50 25 50 24 0 25 2 25 75 0 73 1 75 25
75 24 0 25 2 25 75 0 73 1 75 25 75 20 0 25 5 25 25 0 20 5 25 25 25 24 0 25
-2 25 -75z"/>
<path d="M19650 5675 c0 -24 -2 -25 -75 -25 -73 0 -75 -1 -75 -25 0 -24 -2
-25 -75 -25 -73 0 -75 -1 -75 -25 0 -23 -3 -25 -50 -25 -47 0 -50 -2 -50 -25
0 -20 -5 -25 -25 -25 -20 0 -25 -5 -25 -25 0 -20 -5 -25 -25 -25 -20 0 -25 -5
-25 -25 0 -20 -5 -25 -25 -25 -20 0 -25 -5 -25 -25 0 -20 -5 -25 -25 -25 -23
0 -25 -3 -25 -50 0 -47 -2 -50 -25 -50 -24 0 -25 -2 -25 -75 0 -73 -1 -75 -25
-75 l-25 0 0 -175 0 -175 25 0 c24 0 25 -2 25 -75 0 -73 1 -75 25 -75 23 0 25
-3 25 -50 0 -47 2 -50 25 -50 23 0 25 -3 25 -50 0 -47 2 -50 25 -50 20 0 25
-5 25 -25 0 -20 5 -25 25 -25 20 0 25 -5 25 -25 0 -20 5 -25 25 -25 20 0 25
-5 25 -25 0 -20 5 -25 25 -25 20 0 25 -5 25 -25 0 -20 5 -25 25 -25 20 0 25
-5 25 -25 0 -20 5 -25 25 -25 20 0 25 -5 25 -25 0 -20 5 -25 25 -25 20 0 25
-5 25 -25 0 -23 3 -25 50 -25 47 0 50 -2 50 -25 0 -20 5 -25 25 -25 20 0 25
-5 25 -25 0 -23 3 -25 50 -25 47 0 50 -2 50 -25 0 -20 5 -25 25 -25 20 0 25
-5 25 -25 0 -20 5 -25 25 -25 20 0 25 -5 25 -25 0 -23 3 -25 50 -25 47 0 50
-2 50 -25 0 -20 5 -25 25 -25 20 0 25 -5 25 -25 0 -20 5 -25 25 -25 20 0 25
-5 25 -25 0 -20 5 -25 25 -25 20 0 25 -5 25 -25 0 -20 5 -25 25 -25 20 0 25
-5 25 -25 0 -20 5 -25 25 -25 20 0 25 -5 25 -25 0 -20 5 -25 25 -25 20 0 25
-5 25 -25 0 -20 5 -25 25 -25 23 0 25 -3 25 -50 0 -47 2 -50 25 -50 l25 0 0
-175 0 -175 -25 0 c-23 0 -25 -3 -25 -50 0 -47 -2 -50 -25 -50 -20 0 -25 -5
-25 -25 0 -20 -5 -25 -25 -25 -20 0 -25 -5 -25 -25 0 -20 -5 -25 -25 -25 -20
0 -25 -5 -25 -25 0 -20 -5 -25 -25 -25 -20 0 -25 -5 -25 -25 0 -24 -2 -25 -75
-25 -73 0 -75 -1 -75 -25 l0 -25 -225 0 -225 0 0 25 c0 24 -2 25 -75 25 -73 0
-75 1 -75 25 0 20 -5 25 -25 25 -20 0 -25 5 -25 25 0 23 -3 25 -50 25 -47 0
-50 2 -50 25 0 20 -5 25 -25 25 -23 0 -25 3 -25 50 0 47 -2 50 -25 50 -24 0
-25 2 -25 75 0 73 -1 75 -25 75 -24 0 -25 2 -25 75 l0 75 -50 0 c-47 0 -50 -2
-50 -25 0 -20 -5 -25 -25 -25 l-25 0 0 -325 0 -325 50 0 c47 0 50 -2 50 -25
l0 -25 100 0 100 0 0 -25 0 -25 425 0 425 0 0 25 c0 24 2 25 75 25 73 0 75 1
75 25 0 23 3 25 50 25 47 0 50 2 50 25 0 23 3 25 50 25 47 0 50 2 50 25 0 20
5 25 25 25 20 0 25 5 25 25 0 23 3 25 50 25 47 0 50 2 50 25 0 20 5 25 25 25
23 0 25 3 25 50 0 47 2 50 25 50 20 0 25 5 25 25 0 20 5 25 25 25 23 0 25 3
25 50 0 47 2 50 25 50 24 0 25 2 25 75 0 73 1 75 25 75 l25 0 0 175 0 175 -25
0 c-24 0 -25 2 -25 75 0 73 -1 75 -25 75 -23 0 -25 3 -25 50 0 47 -2 50 -25
50 -23 0 -25 3 -25 50 0 47 -2 50 -25 50 -20 0 -25 5 -25 25 0 20 -5 25 -25
25 -20 0 -25 5 -25 25 0 20 -5 25 -25 25 -20 0 -25 5 -25 25 0 20 -5 25 -25
25 -20 0 -25 5 -25 25 0 20 -5 25 -25 25 -20 0 -25 5 -25 25 0 20 -5 25 -25
25 -20 0 -25 5 -25 25 0 20 -5 25 -25 25 -20 0 -25 5 -25 25 0 23 -3 25 -50
25 -47 0 -50 2 -50 25 0 20 -5 25 -25 25 -20 0 -25 5 -25 25 0 20 -5 25 -25
25 -20 0 -25 5 -25 25 0 23 -3 25 -50 25 -47 0 -50 2 -50 25 0 20 -5 25 -25
25 -20 0 -25 5 -25 25 0 23 -3 25 -50 25 -47 0 -50 2 -50 25 0 20 -5 25 -25
25 -20 0 -25 5 -25 25 0 20 -5 25 -25 25 -20 0 -25 5 -25 25 0 23 -3 25 -50
25 -47 0 -50 2 -50 25 0 20 -5 25 -25 25 -20 0 -25 5 -25 25 0 20 -5 25 -25
25 -20 0 -25 5 -25 25 0 20 -5 25 -25 25 -20 0 -25 5 -25 25 0 20 -5 25 -25
25 -23 0 -25 3 -25 50 0 47 -2 50 -25 50 l-25 0 0 150 0 150 25 0 c23 0 25 3
25 50 0 47 2 50 25 50 20 0 25 5 25 25 0 20 5 25 25 25 20 0 25 5 25 25 0 23
3 25 50 25 47 0 50 2 50 25 0 23 3 25 50 25 47 0 50 2 50 25 l0 25 200 0 200
0 0 -25 c0 -24 2 -25 75 -25 73 0 75 -1 75 -25 0 -23 3 -25 50 -25 47 0 50 -2
50 -25 0 -20 5 -25 25 -25 20 0 25 -5 25 -25 0 -20 5 -25 25 -25 23 0 25 -3
25 -50 0 -47 2 -50 25 -50 l25 0 0 -100 0 -100 75 0 75 0 0 325 0 325 -150 0
-150 0 0 25 0 25 -350 0 -350 0 0 -25z"/>
<path d="M22800 5675 c0 -20 -5 -25 -25 -25 -23 0 -25 -3 -25 -50 0 -47 -2
-50 -25 -50 -23 0 -25 -3 -25 -50 0 -47 -2 -50 -25 -50 -23 0 -25 -3 -25 -50
0 -47 -2 -50 -25 -50 -24 0 -25 -2 -25 -75 0 -73 -1 -75 -25 -75 -23 0 -25 -3
-25 -50 0 -47 -2 -50 -25 -50 -24 0 -25 -2 -25 -75 0 -73 -1 -75 -25 -75 -23
0 -25 -3 -25 -50 0 -47 -2 -50 -25 -50 -23 0 -25 -3 -25 -50 0 -47 -2 -50 -25
-50 -24 0 -25 -2 -25 -75 0 -73 -1 -75 -25 -75 -23 0 -25 -3 -25 -50 0 -47 -2
-50 -25 -50 -24 0 -25 -2 -25 -75 0 -73 -1 -75 -25 -75 -23 0 -25 -3 -25 -50
0 -47 -2 -50 -25 -50 -23 0 -25 -3 -25 -50 0 -47 -2 -50 -25 -50 -24 0 -25 -2
-25 -75 0 -73 -1 -75 -25 -75 -23 0 -25 -3 -25 -50 0 -47 -2 -50 -25 -50 -24
0 -25 -2 -25 -75 0 -73 -1 -75 -25 -75 -23 0 -25 -3 -25 -50 0 -47 -2 -50 -25
-50 -23 0 -25 -3 -25 -50 0 -47 -2 -50 -25 -50 -24 0 -25 -2 -25 -75 0 -73 -1
-75 -25 -75 -23 0 -25 -3 -25 -50 0 -47 -2 -50 -25 -50 -24 0 -25 -2 -25 -75
0 -73 -1 -75 -25 -75 -23 0 -25 -3 -25 -50 0 -47 -2 -50 -25 -50 -23 0 -25 -3
-25 -50 0 -47 -2 -50 -25 -50 -23 0 -25 -3 -25 -50 0 -47 -2 -50 -25 -50 -23
0 -25 -3 -25 -50 0 -47 -2 -50 -25 -50 -20 0 -25 -5 -25 -25 0 -20 -5 -25 -25
-25 -20 0 -25 -5 -25 -25 0 -23 -3 -25 -50 -25 -47 0 -50 -2 -50 -25 l0 -25
-150 0 -150 0 0 -50 0 -50 575 0 575 0 0 50 0 50 -100 0 -100 0 0 25 c0 20 -5
25 -25 25 l-25 0 0 100 0 100 25 0 c24 0 25 2 25 75 0 73 1 75 25 75 24 0 25
2 25 75 0 73 1 75 25 75 23 0 25 3 25 50 0 47 2 50 25 50 24 0 25 2 25 75 0
73 1 75 25 75 23 0 25 3 25 50 0 47 2 50 25 50 24 0 25 2 25 75 l0 75 525 0
525 0 0 -75 c0 -73 1 -75 25 -75 23 0 25 -3 25 -50 0 -47 2 -50 25 -50 23 0
25 -3 25 -50 0 -47 2 -50 25 -50 23 0 25 -3 25 -50 0 -47 2 -50 25 -50 24 0
25 -2 25 -75 0 -73 1 -75 25 -75 23 0 25 -3 25 -50 0 -47 2 -50 25 -50 23 0
25 -3 25 -50 0 -47 2 -50 25 -50 24 0 25 -2 25 -75 0 -73 1 -75 25 -75 23 0
25 -3 25 -50 0 -47 -2 -50 -25 -50 -23 0 -25 -3 -25 -50 l0 -50 525 0 525 0 0
50 0 50 -125 0 -125 0 0 25 c0 23 -3 25 -50 25 -47 0 -50 2 -50 25 0 20 -5 25
-25 25 -20 0 -25 5 -25 25 0 20 -5 25 -25 25 -20 0 -25 5 -25 25 0 20 -5 25
-25 25 -20 0 -25 5 -25 25 0 20 -5 25 -25 25 -23 0 -25 3 -25 50 0 47 -2 50
-25 50 -23 0 -25 3 -25 50 0 47 -2 50 -25 50 -23 0 -25 3 -25 50 0 47 -2 50
-25 50 -23 0 -25 3 -25 50 0 47 -2 50 -25 50 -24 0 -25 2 -25 75 0 73 -1 75
-25 75 -23 0 -25 3 -25 50 0 47 -2 50 -25 50 -23 0 -25 3 -25 50 0 47 -2 50
-25 50 -23 0 -25 3 -25 50 0 47 -2 50 -25 50 -24 0 -25 2 -25 75 0 73 -1 75
-25 75 -23 0 -25 3 -25 50 0 47 -2 50 -25 50 -23 0 -25 3 -25 50 0 47 -2 50
-25 50 -24 0 -25 2 -25 75 0 73 -1 75 -25 75 -23 0 -25 3 -25 50 0 47 -2 50
-25 50 -23 0 -25 3 -25 50 0 47 -2 50 -25 50 -23 0 -25 3 -25 50 0 47 -2 50
-25 50 -24 0 -25 2 -25 75 0 73 -1 75 -25 75 -23 0 -25 3 -25 50 0 47 -2 50
-25 50 -23 0 -25 3 -25 50 0 47 -2 50 -25 50 -24 0 -25 2 -25 75 0 73 -1 75
-25 75 -23 0 -25 3 -25 50 0 47 -2 50 -25 50 -23 0 -25 3 -25 50 0 47 -2 50
-25 50 -24 0 -25 2 -25 75 0 73 -1 75 -25 75 -23 0 -25 3 -25 50 0 47 -2 50
-25 50 -23 0 -25 3 -25 50 0 47 -2 50 -25 50 -23 0 -25 3 -25 50 0 47 -2 50
-25 50 -20 0 -25 5 -25 25 0 23 -3 25 -50 25 -47 0 -50 -2 -50 -25z m0 -825
c0 -47 2 -50 25 -50 24 0 25 -2 25 -75 0 -73 1 -75 25 -75 24 0 25 -2 25 -75
0 -73 1 -75 25 -75 23 0 25 -3 25 -50 0 -47 2 -50 25 -50 24 0 25 -2 25 -75 0
-73 1 -75 25 -75 23 0 25 -3 25 -50 0 -47 2 -50 25 -50 24 0 25 -2 25 -75 0
-73 1 -75 25 -75 23 0 25 -3 25 -50 l0 -50 -375 0 -375 0 0 75 c0 73 1 75 25
75 23 0 25 3 25 50 0 47 2 50 25 50 24 0 25 2 25 75 0 73 1 75 25 75 24 0 25
2 25 75 0 73 1 75 25 75 23 0 25 3 25 50 0 47 2 50 25 50 24 0 25 2 25 75 0
73 1 75 25 75 24 0 25 2 25 75 0 73 1 75 25 75 20 0 25 5 25 25 0 20 5 25 25
25 23 0 25 -3 25 -50z"/>
<path d="M7100 5600 c0 -47 2 -50 25 -50 20 0 25 -5 25 -25 l0 -25 100 0 100
0 0 -25 c0 -20 5 -25 25 -25 l25 0 0 -125 0 -125 25 0 25 0 0 -1025 0 -1025
-25 0 -25 0 0 -225 0 -225 -25 0 c-20 0 -25 -5 -25 -25 0 -20 -5 -25 -25 -25
-20 0 -25 -5 -25 -25 l0 -25 -100 0 -100 0 0 -50 0 -50 650 0 650 0 0 50 0 50
-150 0 -150 0 0 25 c0 23 -3 25 -50 25 l-50 0 0 50 c0 47 -2 50 -25 50 l-25 0
0 1350 0 1350 25 0 c20 0 25 5 25 25 l0 25 100 0 100 0 0 25 c0 20 5 25 25 25
23 0 25 3 25 50 l0 50 -575 0 -575 0 0 -50z"/>
<path d="M0 1500 l0 -50 50 0 c47 0 50 -2 50 -25 0 -20 5 -25 25 -25 l25 0 0
-650 0 -650 -75 0 -75 0 0 -50 0 -50 300 0 300 0 0 25 c0 20 -5 25 -25 25 -20
0 -25 5 -25 25 0 24 -2 25 -75 25 l-75 0 0 275 0 275 25 0 c20 0 25 -5 25 -25
l0 -25 100 0 100 0 0 -50 c0 -47 2 -50 25 -50 20 0 25 -5 25 -25 0 -20 5 -25
25 -25 20 0 25 -5 25 -25 0 -20 5 -25 25 -25 20 0 25 -5 25 -25 0 -20 5 -25
25 -25 23 0 25 -3 25 -50 0 -47 2 -50 25 -50 20 0 25 -5 25 -25 0 -20 5 -25
25 -25 20 0 25 -5 25 -25 0 -20 5 -25 25 -25 20 0 25 -5 25 -25 0 -20 5 -25
25 -25 20 0 25 -5 25 -25 0 -23 3 -25 50 -25 47 0 50 -2 50 -25 l0 -25 200 0
200 0 0 50 0 50 -100 0 -100 0 0 25 c0 20 -5 25 -25 25 -20 0 -25 5 -25 25 0
20 -5 25 -25 25 -20 0 -25 5 -25 25 0 20 -5 25 -25 25 -20 0 -25 5 -25 25 0
20 -5 25 -25 25 -20 0 -25 5 -25 25 0 20 -5 25 -25 25 -20 0 -25 5 -25 25 0
20 -5 25 -25 25 -20 0 -25 5 -25 25 0 20 -5 25 -25 25 -20 0 -25 5 -25 25 0
20 -5 25 -25 25 -23 0 -25 3 -25 50 0 47 -2 50 -25 50 -20 0 -25 5 -25 25 0
20 -5 25 -25 25 -23 0 -25 3 -25 50 0 47 2 50 25 50 20 0 25 5 25 25 0 20 5
25 25 25 20 0 25 5 25 25 0 20 5 25 25 25 23 0 25 3 25 50 0 47 2 50 25 50
l25 0 0 175 0 175 -25 0 c-20 0 -25 5 -25 25 0 20 -5 25 -25 25 -20 0 -25 5
-25 25 0 20 -5 25 -25 25 -20 0 -25 5 -25 25 0 20 -5 25 -25 25 -20 0 -25 5
-25 25 l0 25 -150 0 -150 0 0 25 c0 23 -3 25 -50 25 -47 0 -50 -2 -50 -25 l0
-25 -175 0 -175 0 0 25 c0 23 -3 25 -50 25 l-50 0 0 -50z m650 -125 c0 -20 5
-25 25 -25 20 0 25 -5 25 -25 0 -20 5 -25 25 -25 23 0 25 -3 25 -50 0 -47 2
-50 25 -50 l25 0 0 -175 0 -175 -25 0 c-20 0 -25 -5 -25 -25 0 -20 -5 -25 -25
-25 -20 0 -25 -5 -25 -25 l0 -25 -150 0 -150 0 0 325 0 325 125 0 125 0 0 -25z"/>
<path d="M1950 1525 c0 -20 -5 -25 -25 -25 -20 0 -25 -5 -25 -25 0 -24 2 -25
75 -25 l75 0 0 -675 0 -675 -50 0 -50 0 0 -50 0 -50 450 0 450 0 0 175 0 175
-25 0 c-20 0 -25 -5 -25 -25 0 -20 -5 -25 -25 -25 -23 0 -25 -3 -25 -50 0 -47
-2 -50 -25 -50 -20 0 -25 -5 -25 -25 l0 -25 -175 0 -175 0 0 50 c0 47 -2 50
-25 50 l-25 0 0 250 0 250 175 0 175 0 0 -75 0 -75 50 0 50 0 0 100 0 100 25
0 c24 0 25 2 25 75 l0 75 -50 0 c-47 0 -50 -2 -50 -25 l0 -25 -200 0 -200 0 0
250 0 250 175 0 175 0 0 -25 c0 -20 5 -25 25 -25 24 0 25 -2 25 -75 l0 -75 50
0 50 0 0 175 0 175 -50 0 c-47 0 -50 -2 -50 -25 l0 -25 -350 0 -350 0 0 25 c0
20 -5 25 -25 25 -20 0 -25 -5 -25 -25z"/>
<path d="M3700 1525 c0 -23 -3 -25 -50 -25 -47 0 -50 -2 -50 -25 0 -20 -5 -25
-25 -25 -20 0 -25 -5 -25 -25 0 -20 -5 -25 -25 -25 -20 0 -25 -5 -25 -25 0
-20 -5 -25 -25 -25 l-25 0 0 -175 0 -175 25 0 c23 0 25 -3 25 -50 0 -47 2 -50
25 -50 20 0 25 -5 25 -25 0 -20 5 -25 25 -25 20 0 25 -5 25 -25 0 -20 5 -25
25 -25 20 0 25 -5 25 -25 0 -20 5 -25 25 -25 20 0 25 -5 25 -25 0 -20 5 -25
25 -25 20 0 25 -5 25 -25 0 -23 3 -25 50 -25 47 0 50 -2 50 -25 0 -20 5 -25
25 -25 20 0 25 -5 25 -25 0 -20 5 -25 25 -25 20 0 25 -5 25 -25 0 -20 5 -25
25 -25 l25 0 0 -150 0 -150 -25 0 c-20 0 -25 -5 -25 -25 0 -23 -3 -25 -50 -25
-47 0 -50 -2 -50 -25 l0 -25 -100 0 -100 0 0 25 c0 20 -5 25 -25 25 -20 0 -25
5 -25 25 0 20 -5 25 -25 25 -20 0 -25 5 -25 25 0 20 -5 25 -25 25 -24 0 -25 2
-25 75 l0 75 -50 0 -50 0 0 -175 0 -175 25 0 c20 0 25 -5 25 -25 l0 -25 275 0
275 0 0 25 c0 23 3 25 50 25 47 0 50 2 50 25 0 20 5 25 25 25 23 0 25 3 25 50
0 47 2 50 25 50 23 0 25 3 25 50 0 47 2 50 25 50 l25 0 0 125 0 125 -25 0
c-23 0 -25 3 -25 50 0 47 -2 50 -25 50 -23 0 -25 3 -25 50 0 47 -2 50 -25 50
-20 0 -25 5 -25 25 0 20 -5 25 -25 25 -20 0 -25 5 -25 25 0 23 -3 25 -50 25
-47 0 -50 2 -50 25 0 20 -5 25 -25 25 -20 0 -25 5 -25 25 0 20 -5 25 -25 25
-20 0 -25 5 -25 25 0 20 -5 25 -25 25 -20 0 -25 5 -25 25 0 23 -3 25 -50 25
l-50 0 0 50 c0 47 -2 50 -25 50 l-25 0 0 100 0 100 25 0 c20 0 25 5 25 25 0
23 3 25 50 25 47 0 50 2 50 25 0 23 3 25 50 25 47 0 50 -2 50 -25 0 -24 2 -25
75 -25 73 0 75 -1 75 -25 0 -20 5 -25 25 -25 24 0 25 -2 25 -75 l0 -75 50 0
50 0 0 150 0 150 -25 0 c-20 0 -25 5 -25 25 l0 25 -225 0 -225 0 0 -25z"/>
<path d="M5300 1525 c0 -24 -2 -25 -75 -25 -73 0 -75 -1 -75 -25 0 -20 -5 -25
-25 -25 -20 0 -25 -5 -25 -25 0 -23 -3 -25 -50 -25 -47 0 -50 -2 -50 -25 0
-20 -5 -25 -25 -25 -20 0 -25 -5 -25 -25 0 -20 -5 -25 -25 -25 -20 0 -25 -5
-25 -25 0 -20 -5 -25 -25 -25 -23 0 -25 -3 -25 -50 0 -47 -2 -50 -25 -50 -23
0 -25 -3 -25 -50 0 -47 -2 -50 -25 -50 l-25 0 0 -100 0 -100 -25 0 c-24 0 -25
-2 -25 -75 0 -73 1 -75 25 -75 l25 0 0 -125 0 -125 25 0 c23 0 25 -3 25 -50 0
-47 2 -50 25 -50 20 0 25 -5 25 -25 0 -20 5 -25 25 -25 23 0 25 -3 25 -50 0
-47 2 -50 25 -50 20 0 25 -5 25 -25 0 -23 3 -25 50 -25 47 0 50 -2 50 -25 0
-20 5 -25 25 -25 20 0 25 -5 25 -25 0 -24 2 -25 75 -25 73 0 75 -1 75 -25 l0
-25 300 0 300 0 0 25 c0 23 3 25 50 25 47 0 50 2 50 25 0 23 3 25 50 25 47 0
50 2 50 25 0 20 5 25 25 25 20 0 25 5 25 25 0 20 5 25 25 25 20 0 25 5 25 25
0 20 5 25 25 25 20 0 25 5 25 25 0 20 5 25 25 25 20 0 25 5 25 25 0 20 5 25
25 25 23 0 25 3 25 50 0 47 2 50 25 50 l25 0 0 100 0 100 25 0 25 0 0 150 0
150 -25 0 c-24 0 -25 2 -25 75 0 73 -1 75 -25 75 -23 0 -25 3 -25 50 0 47 -2
50 -25 50 -23 0 -25 3 -25 50 0 47 -2 50 -25 50 -20 0 -25 5 -25 25 0 20 -5
25 -25 25 -20 0 -25 5 -25 25 0 23 -3 25 -50 25 -47 0 -50 2 -50 25 0 23 -3
25 -50 25 -47 0 -50 2 -50 25 0 24 -2 25 -75 25 -73 0 -75 1 -75 25 l0 25
-250 0 -250 0 0 -25z m300 -100 c0 -24 2 -25 75 -25 73 0 75 -1 75 -25 0 -23
3 -25 50 -25 47 0 50 -2 50 -25 0 -20 5 -25 25 -25 20 0 25 -5 25 -25 0 -20 5
-25 25 -25 20 0 25 -5 25 -25 0 -20 5 -25 25 -25 23 0 25 -3 25 -50 0 -47 2
-50 25 -50 24 0 25 -2 25 -75 0 -73 1 -75 25 -75 l25 0 0 -225 0 -225 -25 0
c-24 0 -25 -2 -25 -75 0 -73 -1 -75 -25 -75 -20 0 -25 -5 -25 -25 0 -20 -5
-25 -25 -25 -20 0 -25 -5 -25 -25 0 -20 -5 -25 -25 -25 -20 0 -25 -5 -25 -25
0 -20 -5 -25 -25 -25 -20 0 -25 -5 -25 -25 0 -24 -2 -25 -75 -25 -73 0 -75 -1
-75 -25 l0 -25 -125 0 -125 0 0 25 c0 23 -3 25 -50 25 -47 0 -50 2 -50 25 0
23 -3 25 -50 25 -47 0 -50 2 -50 25 0 20 -5 25 -25 25 -20 0 -25 5 -25 25 0
20 -5 25 -25 25 -20 0 -25 5 -25 25 0 20 -5 25 -25 25 -23 0 -25 3 -25 50 0
47 -2 50 -25 50 -24 0 -25 2 -25 75 0 73 -1 75 -25 75 l-25 0 0 225 0 225 25
0 c23 0 25 3 25 50 0 47 2 50 25 50 23 0 25 3 25 50 0 47 2 50 25 50 20 0 25
5 25 25 0 20 5 25 25 25 20 0 25 5 25 25 0 23 3 25 50 25 47 0 50 2 50 25 0
24 2 25 75 25 73 0 75 1 75 25 0 24 2 25 75 25 73 0 75 -1 75 -25z"/>
<path d="M6800 1525 c0 -20 -5 -25 -25 -25 -20 0 -25 -5 -25 -25 0 -24 2 -25
75 -25 73 0 75 -1 75 -25 0 -20 5 -25 25 -25 l25 0 0 -525 0 -525 25 0 c24 0
25 -2 25 -75 0 -73 1 -75 25 -75 20 0 25 -5 25 -25 0 -20 5 -25 25 -25 20 0
25 -5 25 -25 0 -20 5 -25 25 -25 20 0 25 -5 25 -25 0 -23 3 -25 50 -25 47 0
50 -2 50 -25 l0 -25 300 0 300 0 0 25 c0 23 3 25 50 25 47 0 50 2 50 25 0 20
5 25 25 25 20 0 25 5 25 25 0 20 5 25 25 25 20 0 25 5 25 25 0 20 5 25 25 25
20 0 25 5 25 25 0 20 5 25 25 25 24 0 25 2 25 75 0 73 1 75 25 75 l25 0 0 500
0 500 25 0 c20 0 25 5 25 25 0 23 3 25 50 25 47 0 50 2 50 25 0 20 -5 25 -25
25 -20 0 -25 5 -25 25 0 20 -5 25 -25 25 -20 0 -25 -5 -25 -25 l0 -25 -150 0
-150 0 0 25 c0 23 -3 25 -50 25 -47 0 -50 -2 -50 -25 0 -20 -5 -25 -25 -25
-20 0 -25 -5 -25 -25 0 -24 2 -25 75 -25 73 0 75 -1 75 -25 0 -20 5 -25 25
-25 l25 0 0 -475 0 -475 -25 0 c-24 0 -25 -2 -25 -75 0 -73 -1 -75 -25 -75
-23 0 -25 -3 -25 -50 l0 -50 -50 0 c-47 0 -50 -2 -50 -25 0 -23 -3 -25 -50
-25 -47 0 -50 -2 -50 -25 l0 -25 -100 0 -100 0 0 25 c0 23 -3 25 -50 25 -47 0
-50 2 -50 25 0 23 -3 25 -50 25 l-50 0 0 50 c0 47 -2 50 -25 50 -23 0 -25 3
-25 50 0 47 -2 50 -25 50 l-25 0 0 525 0 525 75 0 c73 0 75 1 75 25 0 20 -5
25 -25 25 -20 0 -25 5 -25 25 0 20 -5 25 -25 25 -20 0 -25 -5 -25 -25 l0 -25
-175 0 -175 0 0 25 c0 23 -3 25 -50 25 -47 0 -50 -2 -50 -25z"/>
<path d="M8850 1525 c0 -20 -5 -25 -25 -25 -20 0 -25 -5 -25 -25 0 -24 2 -25
75 -25 73 0 75 -1 75 -25 0 -20 5 -25 25 -25 l25 0 0 -650 0 -650 -75 0 -75 0
0 -50 0 -50 300 0 300 0 0 50 0 50 -100 0 -100 0 0 275 0 275 25 0 c20 0 25
-5 25 -25 l0 -25 100 0 100 0 0 -50 c0 -47 2 -50 25 -50 20 0 25 -5 25 -25 0
-20 5 -25 25 -25 20 0 25 -5 25 -25 0 -20 5 -25 25 -25 20 0 25 -5 25 -25 0
-20 5 -25 25 -25 23 0 25 -3 25 -50 0 -47 2 -50 25 -50 20 0 25 -5 25 -25 0
-20 5 -25 25 -25 20 0 25 -5 25 -25 0 -20 5 -25 25 -25 20 0 25 -5 25 -25 0
-20 5 -25 25 -25 20 0 25 -5 25 -25 0 -23 3 -25 50 -25 47 0 50 -2 50 -25 l0
-25 200 0 200 0 0 50 0 50 -100 0 -100 0 0 25 c0 20 -5 25 -25 25 -20 0 -25 5
-25 25 0 20 -5 25 -25 25 -20 0 -25 5 -25 25 0 20 -5 25 -25 25 -20 0 -25 5
-25 25 0 20 -5 25 -25 25 -20 0 -25 5 -25 25 0 20 -5 25 -25 25 -20 0 -25 5
-25 25 0 20 -5 25 -25 25 -20 0 -25 5 -25 25 0 20 -5 25 -25 25 -23 0 -25 3
-25 50 0 47 -2 50 -25 50 -20 0 -25 5 -25 25 0 20 -5 25 -25 25 -20 0 -25 5
-25 25 0 20 -5 25 -25 25 -23 0 -25 3 -25 50 0 47 2 50 25 50 20 0 25 5 25 25
0 20 5 25 25 25 20 0 25 5 25 25 0 20 5 25 25 25 23 0 25 3 25 50 0 47 2 50
25 50 l25 0 0 175 0 175 -25 0 c-23 0 -25 3 -25 50 0 47 -2 50 -25 50 -20 0
-25 5 -25 25 0 23 -3 25 -50 25 -47 0 -50 2 -50 25 l0 25 -150 0 -150 0 0 25
c0 23 -3 25 -50 25 -47 0 -50 -2 -50 -25 l0 -25 -175 0 -175 0 0 25 c0 23 -3
25 -50 25 -47 0 -50 -2 -50 -25z m650 -150 c0 -20 5 -25 25 -25 20 0 25 -5 25
-25 0 -20 5 -25 25 -25 23 0 25 -3 25 -50 0 -47 2 -50 25 -50 l25 0 0 -150 0
-150 -25 0 c-23 0 -25 -3 -25 -50 0 -47 -2 -50 -25 -50 -20 0 -25 -5 -25 -25
l0 -25 -150 0 -150 0 0 325 0 325 125 0 125 0 0 -25z"/>
<path d="M11150 1525 c0 -24 -2 -25 -75 -25 -73 0 -75 -1 -75 -25 0 -23 -3
-25 -50 -25 -47 0 -50 -2 -50 -25 0 -20 -5 -25 -25 -25 -20 0 -25 -5 -25 -25
0 -23 -3 -25 -50 -25 l-50 0 0 -50 c0 -47 -2 -50 -25 -50 -20 0 -25 -5 -25
-25 0 -20 -5 -25 -25 -25 -23 0 -25 -3 -25 -50 0 -47 -2 -50 -25 -50 -24 0
-25 -2 -25 -75 0 -73 -1 -75 -25 -75 l-25 0 0 -175 0 -175 25 0 c24 0 25 -2
25 -75 0 -73 1 -75 25 -75 23 0 25 -3 25 -50 0 -47 2 -50 25 -50 23 0 25 -3
25 -50 0 -47 2 -50 25 -50 20 0 25 -5 25 -25 0 -20 5 -25 25 -25 20 0 25 -5
25 -25 0 -23 3 -25 50 -25 47 0 50 -2 50 -25 0 -23 3 -25 50 -25 47 0 50 -2
50 -25 0 -23 3 -25 50 -25 47 0 50 -2 50 -25 l0 -25 400 0 400 0 0 25 c0 20 5
25 25 25 24 0 25 2 25 75 0 73 1 75 25 75 l25 0 0 100 0 100 -50 0 -50 0 0
-50 c0 -47 -2 -50 -25 -50 -23 0 -25 -3 -25 -50 l0 -50 -50 0 c-47 0 -50 -2
-50 -25 l0 -25 -100 0 -100 0 0 -25 c0 -20 -5 -25 -25 -25 -20 0 -25 5 -25 25
l0 25 -125 0 -125 0 0 25 c0 23 -3 25 -50 25 -47 0 -50 2 -50 25 0 20 -5 25
-25 25 -20 0 -25 5 -25 25 0 20 -5 25 -25 25 -20 0 -25 5 -25 25 0 20 -5 25
-25 25 -20 0 -25 5 -25 25 0 20 -5 25 -25 25 -20 0 -25 5 -25 25 0 20 -5 25
-25 25 -23 0 -25 3 -25 50 0 47 -2 50 -25 50 l-25 0 0 275 0 275 25 0 c23 0
25 3 25 50 0 47 2 50 25 50 20 0 25 5 25 25 0 20 5 25 25 25 20 0 25 5 25 25
0 20 5 25 25 25 20 0 25 5 25 25 0 23 3 25 50 25 47 0 50 2 50 25 l0 25 250 0
250 0 0 -25 c0 -23 3 -25 50 -25 47 0 50 -2 50 -25 0 -20 5 -25 25 -25 20 0
25 -5 25 -25 0 -20 5 -25 25 -25 23 0 25 -3 25 -50 0 -47 2 -50 25 -50 23 0
25 -3 25 -50 0 -47 2 -50 25 -50 20 0 25 5 25 25 0 20 5 25 25 25 l25 0 0 200
0 200 -100 0 -100 0 0 25 0 25 -325 0 -325 0 0 -25z"/>
<path d="M12500 1500 l0 -50 50 0 c47 0 50 -2 50 -25 0 -20 5 -25 25 -25 l25
0 0 -650 0 -650 -75 0 -75 0 0 -50 0 -50 450 0 450 0 0 25 c0 20 5 25 25 25
l25 0 0 150 0 150 -50 0 -50 0 0 -75 c0 -73 -1 -75 -25 -75 -20 0 -25 -5 -25
-25 l0 -25 -175 0 -175 0 0 25 c0 20 -5 25 -25 25 l-25 0 0 275 0 275 150 0
150 0 0 -25 c0 -20 5 -25 25 -25 23 0 25 -3 25 -50 l0 -50 50 0 50 0 0 125 0
125 25 0 c20 0 25 5 25 25 0 20 -5 25 -25 25 -20 0 -25 5 -25 25 0 20 -5 25
-25 25 -20 0 -25 -5 -25 -25 l0 -25 -200 0 -200 0 0 250 0 250 150 0 150 0 0
-25 c0 -20 5 -25 25 -25 20 0 25 -5 25 -25 0 -20 5 -25 25 -25 23 0 25 -3 25
-50 0 -47 2 -50 25 -50 20 0 25 5 25 25 0 20 5 25 25 25 l25 0 0 150 0 150
-50 0 c-47 0 -50 -2 -50 -25 l0 -25 -350 0 -350 0 0 25 c0 23 -3 25 -50 25
l-50 0 0 -50z"/>
<path d="M15250 1525 c0 -24 -2 -25 -75 -25 -73 0 -75 -1 -75 -25 0 -23 -3
-25 -50 -25 -47 0 -50 -2 -50 -25 0 -23 -3 -25 -50 -25 -47 0 -50 -2 -50 -25
0 -20 -5 -25 -25 -25 -23 0 -25 -3 -25 -50 0 -47 -2 -50 -25 -50 -20 0 -25 -5
-25 -25 0 -20 -5 -25 -25 -25 -23 0 -25 -3 -25 -50 0 -47 -2 -50 -25 -50 -24
0 -25 -2 -25 -75 0 -73 -1 -75 -25 -75 l-25 0 0 -175 0 -175 25 0 c24 0 25 -2
25 -75 0 -73 1 -75 25 -75 23 0 25 -3 25 -50 0 -47 2 -50 25 -50 23 0 25 -3
25 -50 0 -47 2 -50 25 -50 20 0 25 -5 25 -25 0 -20 5 -25 25 -25 20 0 25 -5
25 -25 0 -23 3 -25 50 -25 47 0 50 -2 50 -25 0 -23 3 -25 50 -25 47 0 50 -2
50 -25 0 -23 3 -25 50 -25 47 0 50 -2 50 -25 l0 -25 400 0 400 0 0 25 c0 20 5
25 25 25 24 0 25 2 25 75 0 73 1 75 25 75 l25 0 0 100 0 100 -50 0 -50 0 0
-50 c0 -47 -2 -50 -25 -50 -23 0 -25 -3 -25 -50 l0 -50 -50 0 c-47 0 -50 -2
-50 -25 l0 -25 -100 0 -100 0 0 -25 c0 -20 -5 -25 -25 -25 -20 0 -25 5 -25 25
l0 25 -125 0 -125 0 0 25 c0 23 -3 25 -50 25 -47 0 -50 2 -50 25 0 20 -5 25
-25 25 -20 0 -25 5 -25 25 0 20 -5 25 -25 25 -20 0 -25 5 -25 25 0 20 -5 25
-25 25 -20 0 -25 5 -25 25 0 20 -5 25 -25 25 -20 0 -25 5 -25 25 0 20 -5 25
-25 25 -23 0 -25 3 -25 50 0 47 -2 50 -25 50 l-25 0 0 275 0 275 25 0 c23 0
25 3 25 50 0 47 2 50 25 50 20 0 25 5 25 25 0 20 5 25 25 25 20 0 25 5 25 25
0 20 5 25 25 25 20 0 25 5 25 25 0 23 3 25 50 25 47 0 50 2 50 25 l0 25 250 0
250 0 0 -25 c0 -23 3 -25 50 -25 47 0 50 -2 50 -25 0 -20 5 -25 25 -25 20 0
25 -5 25 -25 0 -20 5 -25 25 -25 23 0 25 -3 25 -50 0 -47 2 -50 25 -50 23 0
25 -3 25 -50 0 -47 2 -50 25 -50 20 0 25 5 25 25 0 20 5 25 25 25 l25 0 0 200
0 200 -125 0 -125 0 0 25 0 25 -300 0 -300 0 0 -25z"/>
<path d="M16600 1500 l0 -50 50 0 c47 0 50 -2 50 -25 0 -20 5 -25 25 -25 l25
0 0 -650 0 -650 -75 0 -75 0 0 -50 0 -50 450 0 450 0 0 25 c0 20 5 25 25 25
l25 0 0 150 0 150 -50 0 -50 0 0 -75 c0 -73 -1 -75 -25 -75 -20 0 -25 -5 -25
-25 l0 -25 -175 0 -175 0 0 25 c0 20 -5 25 -25 25 l-25 0 0 275 0 275 150 0
150 0 0 -25 c0 -20 5 -25 25 -25 23 0 25 -3 25 -50 l0 -50 50 0 50 0 0 125 0
125 25 0 c20 0 25 5 25 25 0 20 -5 25 -25 25 -20 0 -25 5 -25 25 0 20 -5 25
-25 25 -20 0 -25 -5 -25 -25 l0 -25 -200 0 -200 0 0 250 0 250 150 0 150 0 0
-25 c0 -20 5 -25 25 -25 20 0 25 -5 25 -25 0 -20 5 -25 25 -25 23 0 25 -3 25
-50 0 -47 2 -50 25 -50 20 0 25 5 25 25 0 20 5 25 25 25 l25 0 0 150 0 150
-50 0 c-47 0 -50 -2 -50 -25 l0 -25 -350 0 -350 0 0 25 c0 23 -3 25 -50 25
l-50 0 0 -50z"/>
<path d="M18200 850 l0 -700 -25 0 c-20 0 -25 -5 -25 -25 0 -23 -3 -25 -50
-25 -47 0 -50 -2 -50 -25 0 -20 -5 -25 -25 -25 -20 0 -25 -5 -25 -25 l0 -25
300 0 300 0 0 25 c0 20 -5 25 -25 25 -20 0 -25 5 -25 25 0 24 -2 25 -75 25
l-75 0 0 250 0 250 -25 0 -25 0 0 250 0 250 25 0 c20 0 25 -5 25 -25 0 -20 5
-25 25 -25 20 0 25 -5 25 -25 0 -20 5 -25 25 -25 20 0 25 -5 25 -25 0 -20 5
-25 25 -25 20 0 25 -5 25 -25 0 -20 5 -25 25 -25 20 0 25 -5 25 -25 0 -20 5
-25 25 -25 23 0 25 -3 25 -50 0 -47 2 -50 25 -50 20 0 25 -5 25 -25 0 -20 5
-25 25 -25 20 0 25 -5 25 -25 0 -20 5 -25 25 -25 20 0 25 -5 25 -25 0 -20 5
-25 25 -25 20 0 25 -5 25 -25 0 -20 5 -25 25 -25 20 0 25 -5 25 -25 0 -20 5
-25 25 -25 20 0 25 -5 25 -25 0 -20 5 -25 25 -25 20 0 25 -5 25 -25 0 -20 5
-25 25 -25 20 0 25 -5 25 -25 0 -20 5 -25 25 -25 20 0 25 -5 25 -25 0 -20 5
-25 25 -25 20 0 25 -5 25 -25 0 -23 3 -25 50 -25 47 0 50 -2 50 -25 0 -20 5
-25 25 -25 20 0 25 -5 25 -25 0 -20 5 -25 25 -25 20 0 25 -5 25 -25 0 -20 5
-25 25 -25 20 0 25 -5 25 -25 0 -20 5 -25 25 -25 20 0 25 -5 25 -25 0 -23 3
-25 50 -25 47 0 50 2 50 25 0 20 5 25 25 25 l25 0 0 700 0 700 75 0 c73 0 75
1 75 25 0 20 -5 25 -25 25 -20 0 -25 5 -25 25 0 23 -3 25 -50 25 -47 0 -50 -2
-50 -25 l0 -25 -150 0 -150 0 0 25 c0 20 -5 25 -25 25 -20 0 -25 -5 -25 -25 0
-20 -5 -25 -25 -25 -20 0 -25 -5 -25 -25 0 -24 2 -25 75 -25 l75 0 0 -50 c0
-47 2 -50 25 -50 l25 0 0 -450 0 -450 -25 0 c-20 0 -25 5 -25 25 0 20 -5 25
-25 25 -20 0 -25 5 -25 25 0 20 -5 25 -25 25 -20 0 -25 5 -25 25 0 20 -5 25
-25 25 -20 0 -25 5 -25 25 0 20 -5 25 -25 25 -20 0 -25 5 -25 25 0 20 -5 25
-25 25 -20 0 -25 5 -25 25 0 20 -5 25 -25 25 -20 0 -25 5 -25 25 0 20 -5 25
-25 25 -20 0 -25 5 -25 25 0 20 -5 25 -25 25 -20 0 -25 5 -25 25 0 20 -5 25
-25 25 -20 0 -25 5 -25 25 0 20 -5 25 -25 25 -20 0 -25 5 -25 25 0 20 -5 25
-25 25 -20 0 -25 5 -25 25 0 20 -5 25 -25 25 -20 0 -25 5 -25 25 0 20 -5 25
-25 25 -20 0 -25 5 -25 25 0 20 -5 25 -25 25 -20 0 -25 5 -25 25 0 20 -5 25
-25 25 -20 0 -25 5 -25 25 0 20 -5 25 -25 25 -20 0 -25 5 -25 25 0 20 -5 25
-25 25 -20 0 -25 5 -25 25 0 20 -5 25 -25 25 -20 0 -25 5 -25 25 0 20 -5 25
-25 25 -20 0 -25 5 -25 25 0 20 -5 25 -25 25 -20 0 -25 5 -25 25 0 20 -5 25
-25 25 -20 0 -25 5 -25 25 0 23 -3 25 -50 25 l-50 0 0 -700z"/>
<path d="M20200 1475 c0 -73 -1 -75 -25 -75 l-25 0 0 -100 0 -100 50 0 50 0 0
50 c0 47 2 50 25 50 20 0 25 5 25 25 0 20 5 25 25 25 20 0 25 5 25 25 l0 25
175 0 175 0 0 -650 0 -650 -50 0 -50 0 0 -50 0 -50 275 0 275 0 0 50 0 50 -75
0 -75 0 0 125 0 125 -25 0 -25 0 0 525 0 525 175 0 175 0 0 -25 c0 -23 3 -25
50 -25 l50 0 0 -75 0 -75 50 0 50 0 0 175 0 175 -75 0 c-73 0 -75 -1 -75 -25
l0 -25 -475 0 -475 0 0 25 0 25 -100 0 -100 0 0 -75z"/>
<path d="M22000 1525 c0 -20 -5 -25 -25 -25 -20 0 -25 -5 -25 -25 0 -24 2 -25
75 -25 73 0 75 -1 75 -25 0 -20 5 -25 25 -25 l25 0 0 -625 0 -625 -25 0 c-20
0 -25 -5 -25 -25 0 -23 -3 -25 -50 -25 l-50 0 0 -50 0 -50 450 0 450 0 0 75
c0 73 1 75 25 75 24 0 25 2 25 75 0 73 -1 75 -25 75 -20 0 -25 5 -25 25 0 20
-5 25 -25 25 -23 0 -25 -3 -25 -50 0 -47 -2 -50 -25 -50 -23 0 -25 -3 -25 -50
l0 -50 -200 0 -200 0 0 300 0 300 150 0 150 0 0 -25 c0 -20 5 -25 25 -25 23 0
25 -3 25 -50 l0 -50 50 0 50 0 0 175 0 175 -50 0 c-47 0 -50 -2 -50 -25 l0
-25 -175 0 -175 0 0 250 0 250 150 0 150 0 0 -25 c0 -20 5 -25 25 -25 24 0 25
-2 25 -75 l0 -75 50 0 50 0 0 125 0 125 25 0 c23 0 25 3 25 50 l0 50 -75 0
c-73 0 -75 -1 -75 -25 l0 -25 -350 0 -350 0 0 25 c0 20 -5 25 -25 25 -20 0
-25 -5 -25 -25z"/>
<path d="M23450 1525 c0 -20 -5 -25 -25 -25 -20 0 -25 -5 -25 -25 0 -24 2 -25
75 -25 73 0 75 -1 75 -25 0 -20 5 -25 25 -25 l25 0 0 -650 0 -650 -75 0 -75 0
0 -50 0 -50 275 0 275 0 0 50 0 50 -75 0 -75 0 0 275 0 275 25 0 c20 0 25 -5
25 -25 l0 -25 100 0 100 0 0 -50 c0 -47 2 -50 25 -50 20 0 25 -5 25 -25 0 -20
5 -25 25 -25 20 0 25 -5 25 -25 0 -20 5 -25 25 -25 23 0 25 -3 25 -50 0 -47 2
-50 25 -50 20 0 25 -5 25 -25 0 -20 5 -25 25 -25 20 0 25 -5 25 -25 0 -20 5
-25 25 -25 20 0 25 -5 25 -25 0 -20 5 -25 25 -25 20 0 25 -5 25 -25 0 -20 5
-25 25 -25 20 0 25 -5 25 -25 0 -20 5 -25 25 -25 20 0 25 -5 25 -25 l0 -25
225 0 225 0 0 50 0 50 -100 0 -100 0 0 25 c0 20 -5 25 -25 25 -20 0 -25 5 -25
25 0 23 -3 25 -50 25 -47 0 -50 2 -50 25 0 20 -5 25 -25 25 -23 0 -25 3 -25
50 0 47 -2 50 -25 50 -20 0 -25 5 -25 25 0 20 -5 25 -25 25 -20 0 -25 5 -25
25 0 20 -5 25 -25 25 -20 0 -25 5 -25 25 0 20 -5 25 -25 25 -20 0 -25 5 -25
25 0 20 -5 25 -25 25 -23 0 -25 3 -25 50 0 47 -2 50 -25 50 -23 0 -25 3 -25
50 0 47 2 50 25 50 20 0 25 5 25 25 0 20 5 25 25 25 23 0 25 3 25 50 0 47 2
50 25 50 23 0 25 3 25 50 0 47 2 50 25 50 l25 0 0 125 0 125 -25 0 c-23 0 -25
3 -25 50 0 47 -2 50 -25 50 -20 0 -25 5 -25 25 0 20 -5 25 -25 25 -20 0 -25 5
-25 25 0 20 -5 25 -25 25 -20 0 -25 5 -25 25 l0 25 -150 0 -150 0 0 25 c0 23
-3 25 -50 25 -47 0 -50 -2 -50 -25 l0 -25 -175 0 -175 0 0 25 c0 23 -3 25 -50
25 -47 0 -50 -2 -50 -25z m600 -150 c0 -23 3 -25 50 -25 47 0 50 -2 50 -25 0
-20 5 -25 25 -25 23 0 25 -3 25 -50 0 -47 2 -50 25 -50 l25 0 0 -150 0 -150
-25 0 c-23 0 -25 -3 -25 -50 0 -47 -2 -50 -25 -50 -20 0 -25 -5 -25 -25 l0
-25 -150 0 -150 0 0 325 0 325 100 0 100 0 0 -25z"/>
</g>
</svg>
